<svg width="387" height="63" viewBox="0 0 387 63" fill="none" xmlns="http://www.w3.org/2000/svg">
    <g filter="url(#filter0_d_103_5)">
        <path
            d="M92.7608 10.5638L83.6167 53.9173H72.6364L81.7805 10.5638H69.1041L71.0878 1.27225H107.458L105.474 10.5638H92.7608ZM133.383 53.9173L132.513 41.3884H115.485L109.291 53.9173H97.765L125.352 1.05839H138.781L144.076 53.9173H133.383ZM119.984 32.023H131.974L131.038 19.4204C130.797 16.2789 130.676 13.2432 130.676 10.3131V9.01525C129.62 11.8961 128.312 14.9442 126.753 18.1594L119.984 32.023ZM179.106 26.4776L189.585 53.9173H177.417L169.821 32.5982L165.316 35.1202L161.393 53.9173H150.412L161.54 1.27225H172.557L167.086 26.5513L172.771 19.1696L187.498 1.27225H200.498L179.106 26.4776ZM227.753 38.3649C227.753 43.3794 225.976 47.3443 222.421 50.2596C218.872 53.1799 214.059 54.64 207.983 54.64C202.678 54.64 198.406 53.5584 195.166 51.3953V41.5285C199.802 44.1242 204.099 45.4221 208.056 45.4221C210.746 45.4221 212.847 44.9108 214.361 43.8883C215.871 42.8706 216.625 41.4719 216.625 39.6923C216.625 38.6599 216.463 37.7553 216.139 36.9785C215.819 36.1969 215.357 35.4693 214.752 34.7958C214.152 34.1272 212.665 32.903 210.291 31.1234C206.977 28.7488 204.649 26.3964 203.307 24.0662C201.96 21.7408 201.287 19.2336 201.287 16.5444C201.287 13.4472 202.032 10.6794 203.521 8.24095C205.011 5.80743 207.13 3.91224 209.878 2.55537C212.626 1.1985 215.787 0.520065 219.361 0.520065C224.572 0.520065 229.339 1.70733 233.66 4.08185L229.737 12.4738C225.991 10.699 222.532 9.81167 219.361 9.81167C217.37 9.81167 215.738 10.35 214.465 11.4266C213.196 12.5082 212.562 13.9364 212.562 15.7111C212.562 17.1761 212.958 18.4543 213.749 19.5457C214.541 20.642 216.316 22.0899 219.074 23.8892C221.979 25.8065 224.152 27.9254 225.592 30.2458C227.033 32.5613 227.753 35.2677 227.753 38.3649ZM284.756 1.27225L273.628 53.9173H262.611L267.433 31.1971H250.473L245.65 53.9173H234.669L245.797 1.27225H256.814L252.456 21.9055H269.417L273.775 1.27225H284.756ZM315.579 53.9173L314.709 41.3884H297.682L291.488 53.9173H279.962L307.549 1.05839H320.977L326.272 53.9173H315.579ZM302.18 32.023H314.171L313.234 19.4204C312.993 16.2789 312.873 13.2432 312.873 10.3131V9.01525C311.816 11.8961 310.508 14.9442 308.95 18.1594L302.18 32.023ZM361.302 26.4776L371.781 53.9173H359.613L352.018 32.5982L347.512 35.1202L343.589 53.9173H332.609L343.737 1.27225H354.754L349.282 26.5513L354.968 19.1696L369.694 1.27225H382.695L361.302 26.4776Z"
            fill="black" />
        <path
            d="M41.3771 19.806H57.561V21.2317C55.3261 21.4116 53.6692 21.9125 52.5903 22.7345C51.537 23.5309 49.8801 25.9713 47.6195 30.0558C45.3589 34.1403 42.8157 37.9551 39.9899 41.5002C42.2762 44.1718 44.3185 46.0471 46.1167 47.126C47.9149 48.1792 49.726 48.7059 51.5499 48.7059C53.3224 48.7059 54.8252 48.2306 56.0582 47.2801C57.2913 46.304 58.1647 44.8782 58.6785 43.003L60.1042 44.0433C59.1537 47.6655 57.6252 50.3371 55.5188 52.0582C53.4123 53.7794 50.959 54.64 48.1589 54.64C46.0525 54.64 43.9075 54.0748 41.7239 52.9445C39.5661 51.7885 37.2027 49.849 34.6338 47.126C31.4484 49.9518 28.5713 51.9169 26.0024 53.0216C23.4592 54.1005 20.7362 54.64 17.8334 54.64C13.5947 54.64 10.2295 53.5097 7.73771 51.249C5.2459 48.9884 4 46.2911 4 43.1571C4 40.0487 5.11746 36.9533 7.35238 33.8706C9.5873 30.7623 13.7874 27.5512 19.9527 24.2373C18.7453 21.5657 17.9233 19.3822 17.4866 17.6867C17.0499 15.9656 16.8315 14.3215 16.8315 12.7545C16.8315 8.36169 18.4499 5.0093 21.6867 2.69732C24.2042 0.899106 27.0685 0 30.2796 0C33.3365 0 35.8283 0.91195 37.755 2.73585C39.6817 4.53406 40.645 6.75614 40.645 9.40208C40.645 12.1251 39.7073 14.5141 37.8321 16.5692C35.9825 18.6243 32.6943 20.8721 27.9676 23.3125C31.2301 29.1182 34.6338 34.4358 38.1789 39.2652C42.7001 33.8706 44.9607 29.3237 44.9607 25.6245C44.9607 24.4428 44.5754 23.3896 43.8047 22.4648C43.2396 21.7712 42.4304 21.3602 41.3771 21.2317V19.806ZM26.6575 20.8079C29.8429 19.2922 32.2191 17.5711 33.7861 15.6444C35.3788 13.7178 36.1751 11.5728 36.1751 9.20941C36.1751 7.35982 35.5972 5.83134 34.4412 4.62397C33.3109 3.4166 31.898 2.81292 30.2025 2.81292C27.9676 2.81292 26.2721 3.59642 25.1161 5.16344C23.9858 6.70476 23.4207 8.2204 23.4207 9.71034C23.4207 10.9691 23.639 12.382 24.0758 13.949C24.5125 15.4903 25.373 17.7766 26.6575 20.8079ZM32.6301 44.8911C29.2392 40.2671 26.8887 36.889 25.5785 34.7569C24.2684 32.6247 22.8298 29.9788 21.2628 26.819C18.1802 28.5916 15.8554 30.5439 14.2883 32.6761C12.747 34.8082 11.9764 37.1202 11.9764 39.612C11.9764 42.3607 12.8626 44.7755 14.6351 46.8563C16.4077 48.9371 18.7967 49.9774 21.8023 49.9774C23.4207 49.9774 24.9749 49.6563 26.4648 49.0141C27.9804 48.3719 30.0355 46.9976 32.6301 44.8911Z"
            fill="#25B0A9" />
    </g>
    <defs>
        <filter id="filter0_d_103_5" x="0" y="0" width="386.695" height="62.64" filterUnits="userSpaceOnUse"
            color-interpolation-filters="sRGB">
            <feFlood flood-opacity="0" result="BackgroundImageFix" />
            <feColorMatrix in="SourceAlpha" type="matrix" values="0 0 0 0 0 0 0 0 0 0 0 0 0 0 0 0 0 0 127 0"
                result="hardAlpha" />
            <feOffset dy="4" />
            <feGaussianBlur stdDeviation="2" />
            <feComposite in2="hardAlpha" operator="out" />
            <feColorMatrix type="matrix" values="0 0 0 0 0 0 0 0 0 0 0 0 0 0 0 0 0 0 0.25 0" />
            <feBlend mode="normal" in2="BackgroundImageFix" result="effect1_dropShadow_103_5" />
            <feBlend mode="normal" in="SourceGraphic" in2="effect1_dropShadow_103_5" result="shape" />
        </filter>
    </defs>
</svg>